<?xml version="1.0" encoding="UTF-8" standalone="no"?>
<svg
   xmlns:dc="http://purl.org/dc/elements/1.1/"
   xmlns:cc="http://creativecommons.org/ns#"
   xmlns:rdf="http://www.w3.org/1999/02/22-rdf-syntax-ns#"
   xmlns:svg="http://www.w3.org/2000/svg"
   xmlns="http://www.w3.org/2000/svg"
   xmlns:sodipodi="http://sodipodi.sourceforge.net/DTD/sodipodi-0.dtd"
   xmlns:inkscape="http://www.inkscape.org/namespaces/inkscape"
   sodipodi:docname="dni-to-name.svg"
   inkscape:version="1.0 (4035a4fb49, 2020-05-01)"
   id="svg921"
   version="1.1"
   viewBox="0 0 74.083331 26.458334"
   height="100"
   width="280">
  <defs
     id="defs915" />
  <sodipodi:namedview
     inkscape:window-maximized="1"
     inkscape:window-y="-12"
     inkscape:window-x="4468"
     inkscape:window-height="2050"
     inkscape:window-width="3840"
     units="px"
     showgrid="false"
     inkscape:document-rotation="0"
     inkscape:current-layer="layer1"
     inkscape:document-units="mm"
     inkscape:cy="67.114706"
     inkscape:cx="173.91889"
     inkscape:zoom="7.9195959"
     inkscape:pageshadow="2"
     inkscape:pageopacity="0.0"
     borderopacity="1.0"
     bordercolor="#666666"
     pagecolor="#ffffff"
     id="base" />
  <metadata
     id="metadata918">
    <rdf:RDF>
      <cc:Work
         rdf:about="">
        <dc:format>image/svg+xml</dc:format>
        <dc:type
           rdf:resource="http://purl.org/dc/dcmitype/StillImage" />
        <dc:title></dc:title>
      </cc:Work>
    </rdf:RDF>
  </metadata>
  <g
     id="layer1"
     inkscape:groupmode="layer"
     inkscape:label="Capa 1">
    <path
       d="m 45.948826,13.262129 c 0,0.40421 -0.15453,0.796439 -0.439803,1.081801 l -7.738767,7.738767 c -0.285273,0.273379 -0.677591,0.439803 -1.081802,0.439803 -0.40421,0 -0.784545,-0.166424 -1.069907,-0.439803 l -0.89159,-0.891589 c -0.285273,-0.285274 -0.451697,-0.677592 -0.451697,-1.081802 0,-0.404211 0.166424,-0.79644 0.451697,-1.081801 l 3.483014,-3.483013 h -8.368783 c -0.855908,0 -1.390862,-0.713272 -1.390862,-1.521606 v -1.521605 c 0,-0.808333 0.534954,-1.521605 1.390862,-1.521605 h 8.368783 L 34.726957,7.4847691 C 34.441684,7.2113894 34.27526,6.8190723 34.27526,6.4148615 c 0,-0.4042112 0.166424,-0.7964395 0.451697,-1.0699077 l 0.89159,-0.8915896 c 0.285273,-0.2852733 0.665697,-0.4516973 1.069907,-0.4516973 0.404211,0 0.79644,0.1664241 1.081802,0.4516973 l 7.738767,7.7387668 c 0.285273,0.27338 0.439803,0.665697 0.439803,1.069908 z"
       id="path4"
       style="fill:#666666;stroke-width:0.0887591" />
    <path
       d="M 23.279597,9.9380888 V 6.6307961 H 19.142175 L 19.968998,0.01621276 H 16.661706 L 15.834883,6.6307961 H 9.2219542 L 10.048777,0.01621276 H 6.7414853 L 5.9146633,6.630796 H 0.12855533 V 9.9380887 H 5.5012513 l -0.82517,6.6145793 H 0.12855533 V 19.85996 H 4.2626703 l -0.826823,6.614583 h 3.307292 L 7.5699611,19.85996 h 6.6129299 l -0.826823,6.614583 h 3.308945 l 0.826823,-6.614583 h 5.787761 V 16.552668 H 17.905248 L 18.728763,9.9380888 Z M 14.596302,16.552668 H 7.9833732 l 0.825169,-6.6145792 h 6.6129298 z"
       id="path4-5"
       style="stroke-width:0.110243" />
    <path
       d="M 71.488965,0.04962145 H 51.645211 c -1.364258,0 -2.480469,1.11621085 -2.480469,2.48046855 v 21.497396 c 0,1.364257 1.116211,2.480468 2.480469,2.480468 h 19.843754 c 1.36425,0 2.48046,-1.116211 2.48046,-2.480468 V 2.53009 c 0,-1.3642577 -1.11621,-2.48046855 -2.48046,-2.48046855 z M 70.662135,23.200663 H 52.472034 V 3.356913 h 18.190101 z m -14.88281,-8.26823 h 11.575521 v 1.653646 H 55.779325 Z m 0,3.307292 h 11.575521 v 1.653646 H 55.779325 Z M 57.432971,7.4910278 c 0,-1.36988 1.110589,-2.4804689 2.480469,-2.4804689 1.36988,0 2.480469,1.1105889 2.480469,2.4804689 0,1.3698802 -1.110589,2.4804695 -2.480469,2.4804695 -1.36988,0 -2.480469,-1.1105893 -2.480469,-2.4804695 z m 4.134115,2.4804695 h -3.307292 c -1.364258,0 -2.480469,0.7441397 -2.480469,1.6536447 v 1.653646 h 8.268229 v -1.653646 c 0,-0.909505 -1.11621,-1.6536447 -2.480468,-1.6536447 z"
       id="path4-6"
       style="fill:#017fdc;fill-opacity:1;stroke-width:0.110243" />
  </g>
</svg>
