<?xml version="1.0" encoding="UTF-8" standalone="no"?>
<svg
   xmlns:dc="http://purl.org/dc/elements/1.1/"
   xmlns:cc="http://creativecommons.org/ns#"
   xmlns:rdf="http://www.w3.org/1999/02/22-rdf-syntax-ns#"
   xmlns:svg="http://www.w3.org/2000/svg"
   xmlns="http://www.w3.org/2000/svg"
   xmlns:sodipodi="http://sodipodi.sourceforge.net/DTD/sodipodi-0.dtd"
   xmlns:inkscape="http://www.inkscape.org/namespaces/inkscape"
   sodipodi:docname="dni-to-name.svg"
   inkscape:version="1.0 (4035a4fb49, 2020-05-01)"
   id="svg921"
   version="1.1"
   viewBox="0 0 74.083331 26.458334"
   height="100"
   width="280">
  <defs
     id="defs915" />
  <sodipodi:namedview
     inkscape:window-maximized="1"
     inkscape:window-y="-12"
     inkscape:window-x="4468"
     inkscape:window-height="2050"
     inkscape:window-width="3840"
     units="px"
     showgrid="false"
     inkscape:document-rotation="0"
     inkscape:current-layer="layer1"
     inkscape:document-units="mm"
     inkscape:cy="67.114706"
     inkscape:cx="173.91889"
     inkscape:zoom="7.9195959"
     inkscape:pageshadow="2"
     inkscape:pageopacity="0.0"
     borderopacity="1.0"
     bordercolor="#666666"
     pagecolor="#ffffff"
     id="base" />
  <metadata
     id="metadata918">
    <rdf:RDF>
      <cc:Work
         rdf:about="">
        <dc:format>image/svg+xml</dc:format>
        <dc:type
           rdf:resource="http://purl.org/dc/dcmitype/StillImage" />
        <dc:title></dc:title>
      </cc:Work>
    </rdf:RDF>
  </metadata>
  <g
     id="layer1"
     inkscape:groupmode="layer"
     inkscape:label="Capa 1">
    <path
       d="m 45.948826,13.262129 c 0,0.40421 -0.15453,0.796439 -0.439803,1.081801 l -7.738767,7.738767 c -0.285273,0.273379 -0.677591,0.439803 -1.081802,0.439803 -0.40421,0 -0.784545,-0.166424 -1.069907,-0.439803 l -0.89159,-0.891589 c -0.285273,-0.285274 -0.451697,-0.677592 -0.451697,-1.081802 0,-0.404211 0.166424,-0.79644 0.451697,-1.081801 l 3.483014,-3.483013 h -8.368783 c -0.855908,0 -1.390862,-0.713272 -1.390862,-1.521606 v -1.521605 c 0,-0.808333 0.534954,-1.521605 1.390862,-1.521605 h 8.368783 L 34.726957,7.4847691 C 34.441684,7.2113894 34.27526,6.8190723 34.27526,6.4148615 c 0,-0.4042112 0.166424,-0.7964395 0.451697,-1.0699077 l 0.89159,-0.8915896 c 0.285273,-0.2852733 0.665697,-0.4516973 1.069907,-0.4516973 0.404211,0 0.79644,0.1664241 1.081802,0.4516973 l 7.738767,7.7387668 c 0.285273,0.27338 0.439803,0.665697 0.439803,1.069908 z"
       id="path4"
       style="fill:#666666;stroke-width:0.0887591" />
    <path
       d="M 73.945309,9.9714975 V 6.6642048 H 69.807887 L 70.63471,0.04962145 H 67.327418 L 66.500595,6.6642048 H 59.887666 L 60.714489,0.04962145 H 57.407197 L 56.580375,6.6642047 h -5.786108 v 3.3072928 h 5.372696 l -0.82517,6.6145785 h -4.547526 v 3.307292 h 4.134115 l -0.826823,6.614583 h 3.307292 l 0.826822,-6.614583 h 6.61293 l -0.826823,6.614583 h 3.308945 l 0.826823,-6.614583 h 5.787761 V 16.586076 H 68.57096 l 0.823515,-6.6145785 z m -8.683295,6.6145785 h -6.612929 l 0.825169,-6.6145785 h 6.61293 z"
       id="path4-5"
       style="stroke-width:0.110243" />
    <path
       d="M 22.452778,0.04962145 H 2.6090243 c -1.364258,0 -2.48046897,1.11621085 -2.48046897,2.48046855 v 21.497396 c 0,1.364257 1.11621097,2.480468 2.48046897,2.480468 H 22.452778 c 1.36425,0 2.48046,-1.116211 2.48046,-2.480468 V 2.53009 c 0,-1.3642577 -1.11621,-2.48046855 -2.48046,-2.48046855 z M 21.625948,23.200663 H 3.4358473 V 3.356913 H 21.625948 Z M 6.7431383,14.932433 H 18.318659 v 1.653646 H 6.7431383 Z m 0,3.307292 H 18.318659 v 1.653646 H 6.7431383 Z M 8.3967843,7.4910278 c 0,-1.36988 1.110589,-2.4804689 2.4804687,-2.4804689 1.36988,0 2.480469,1.1105889 2.480469,2.4804689 0,1.3698802 -1.110589,2.4804695 -2.480469,2.4804695 -1.3698797,0 -2.4804687,-1.1105893 -2.4804687,-2.4804695 z M 12.530899,9.9714973 H 9.2236073 c -1.364258,0 -2.480469,0.7441397 -2.480469,1.6536447 v 1.653646 h 8.2682287 v -1.653646 c 0,-0.909505 -1.11621,-1.6536447 -2.480468,-1.6536447 z"
       id="path4-6"
       style="fill:#017fdc;fill-opacity:1;stroke-width:0.110243" />
  </g>
</svg>
